<svg width="24" height="20" viewBox="0 0 24 20" fill="none" xmlns="http://www.w3.org/2000/svg">
<path d="M2.01486 11.7644L1.97973 11.7567L17.0357 11.7567L12.3027 16.5002C12.0709 16.7318 11.9438 17.0455 11.9438 17.3748C11.9438 17.7041 12.0709 18.0156 12.3027 18.2477L13.0391 18.9845C13.2707 19.2161 13.5793 19.3442 13.9084 19.3442C14.2377 19.3442 14.5464 19.217 14.778 18.9855L22.8914 10.8728C23.1239 10.6403 23.251 10.3306 23.2501 10.0012C23.251 9.6699 23.1239 9.36002 22.8914 9.12789L14.778 1.01453C14.5464 0.783131 14.2378 0.655813 13.9084 0.655813C13.5793 0.655813 13.2707 0.783314 13.0391 1.01453L12.3027 1.75136C12.0709 1.98258 11.9438 2.29136 11.9438 2.62063C11.9438 2.94972 12.0709 3.24222 12.3027 3.47362L17.0891 8.24362L1.99803 8.24362C1.31992 8.24362 0.750101 8.82807 0.750101 9.50582V10.548C0.750101 11.2257 1.33675 11.7644 2.01486 11.7644Z" fill="white"/>
</svg>
