<svg width="40" height="26" viewBox="0 0 40 26" fill="none" xmlns="http://www.w3.org/2000/svg">
<path d="M0.834908 2.06008C6.32475 5.99503 15.9577 12.9178 18.789 15.0763C19.169 15.3677 19.5767 15.5158 19.9999 15.5158C20.4222 15.5158 20.8292 15.3691 21.2084 15.0791C24.0421 12.9185 33.6751 5.99503 39.165 2.06008C39.5068 1.81556 39.5589 1.38577 39.2822 1.08684C38.6425 0.396067 37.6887 0 36.6665 0H3.33327C2.31116 0 1.35733 0.396067 0.71772 1.0869C0.441002 1.38577 0.493111 1.81556 0.834908 2.06008Z" fill="black"/>
<path d="M39.5166 4.19246C39.2212 4.07609 38.8737 4.11669 38.628 4.29442C32.5398 8.66254 24.7697 14.2616 22.325 16.126C20.9529 17.1743 19.0486 17.1743 17.6733 16.1246C15.0675 14.1375 6.34188 7.85943 1.37203 4.29436C1.12461 4.11662 0.776328 4.07741 0.483359 4.1924C0.188828 4.30818 0 4.55752 0 4.83232V22.5694C0 24.1254 1.49492 25.3906 3.33336 25.3906H36.6667C38.5051 25.3906 40 24.1254 40 22.5694V4.83232C40 4.55752 39.8112 4.30751 39.5166 4.19246Z" fill="black"/>
</svg>
