<svg width="120" height="120" viewBox="0 0 120 120" fill="none" xmlns="http://www.w3.org/2000/svg">
<path d="M60 0C26.9147 0 0 26.9147 0 60C0 93.0853 26.9147 120 60 120C93.0853 120 120 93.0853 120 60C120 26.9147 93.0853 0 60 0Z" fill="#FF0101"/>
<path d="M64.9997 90C64.9997 92.7612 62.7612 94.9997 60 94.9997C57.2388 94.9997 55.0003 92.7612 55.0003 90C55.0003 87.2388 57.2388 85.0003 60 85.0003C62.7612 85.0003 64.9997 87.2388 64.9997 90Z" fill="#ECEFF1"/>
<path d="M64.9997 70.0003C64.9997 72.7597 62.7603 75 60 75C57.2397 75 55.0003 72.7597 55.0003 70.0003V30C55.0003 27.2397 57.2397 25.0003 60 25.0003C62.7603 25.0003 64.9997 27.2397 64.9997 30V70.0003Z" fill="#FAFAFA"/>
</svg>
