<?xml version="1.0" encoding="utf-8"?>
<!-- Generator: Adobe Illustrator 23.0.2, SVG Export Plug-In . SVG Version: 6.00 Build 0)  -->
<svg version="1.1" id="Capa_1" xmlns="http://www.w3.org/2000/svg" xmlns:xlink="http://www.w3.org/1999/xlink" x="0px" y="0px"
	 viewBox="0 0 600 400" style="enable-background:new 0 0 600 400;" xml:space="preserve">
<style type="text/css">
	.st0{fill:#FFFFFF;}
	.st1{font-family:'BookAntiqua';}
	.st2{font-size:71.3343px;}
	.st3{font-size:71.0057px;}
	.st4{letter-spacing:1;}
</style>
<text transform="matrix(0.9646 0 0 1 144.938 192.0601)" class="st0 st1 st2">Fundación</text>
<text transform="matrix(1.0008 0 0 1 142.5825 262.3975)" class="st0 st1 st3">Jacinto</text>
<text transform="matrix(0.9844 0 0 1 367 262.1094)" class="st0 st1 st2 st4">Convit</text>
<path class="st0" d="M76.8,163c1.1,0.1,2-0.6,3-0.9c1.2-0.4,1.5-0.1,1.7,1.1c0.4,1.7,0.1,3.4-0.8,4.9c-0.3,0.4-0.7,0.8-1.1,1
	c-0.9,0.6-1.8,0.6-2.1,0.1c-0.3-1,0.1-2,0.9-2.5c0.4-0.3,0.8-0.7,0.9-1.2c0.1-0.2,0.2-0.4-0.1-0.6c-0.2-0.1-0.3,0-0.4,0.2
	c-1.2,2.2-2.8,1.8-4.6,1.1c-1.7-0.7-3.4-1.6-4.9-2.7c-0.6-0.4-0.6-1.2-0.8-1.9c-0.1-0.3,0.1-0.3,0.3-0.4c0.8-0.6,1.8-0.6,2.6,0.1
	c1.2,0.9,2.5,1.7,4,1.7C75.8,163.2,76.3,163.2,76.8,163z"/>
<path class="st0" d="M85,165.1c1,0,1.3,0.4,1.1,1.5c-0.2,1.2-0.5,2.4-0.6,3.7c0,0.6-0.6,1.1-1.1,1c-0.2,0-0.4-0.1-0.6-0.2
	c-0.6-0.5-1-0.3-1.4,0c-0.6,0.4-1.2,0.6-1.8,0.6c-0.5,0-0.5-0.2-0.5-0.6c0.1-0.8,0.5-1.5,1-2.1c0.8-1.3,1.5-2.7,2.9-3.5
	C84.3,165.2,84.6,165.1,85,165.1z"/>
<path class="st0" d="M126.8,199.1c-0.1-0.4-0.1-0.9-0.2-1.3c-1.3-4.5-3.5-8-8-9.5c-1.4-0.5-2.8-1.2-4.3-1.9c1-0.8,1.9-1.5,2.9-2.3
	c2.6-2.2,4.8-4.9,5.3-8.5c1.1-7,0.3-13.7-2.9-19.9c-3.6-6.6-5.5-14.2-5.3-21.8c0.1-4.1-0.4-8.1-0.7-12.1c-0.4-5.1-0.8-10.2-1.1-15.3
	c-0.2-3.9-0.8-7.8-1.7-11.5c-2.1-7.3-4.6-14.4-7.1-21.5c-1.8-5.2-3.7-10.4-6.8-14.9c-6.3-8.8-11.8-18.1-16.5-27.9
	c-2.6-5.6-6.6-10.3-11.5-13.7c-4.2-2.9-8.3-6-12.2-9.2c-1.3-1.3-3-1.9-4.8-1.8c-1.1,0.1-2.3,0.1-3.4,0c0.7,0.6,1,1.2,1.5,1.5
	c2.7,1.7,5.3,3.5,7.8,5.3c4.4,3.2,8.8,6.5,13.2,9.8c1.4,1,2.6,2.3,3.5,3.8c1.3,2.2,2.5,4.5,3.6,6.8c1.6,3.3,3.3,6.5,5.1,9.7
	c2,3.5,4.2,6.8,6.3,10.1c1.6,2.4,2.8,5,4.6,7.2c1.7,2.1,3,4.5,3.9,7c1.4,3.9,2.6,7.9,4,11.8c1.9,5.5,4.4,10.8,5.5,16.6
	c0.7,3.6,1.1,7.3,1.3,10.9c0,1.1,0.1,2.2,0.2,3.3c0.4,3.1,0.5,6.2,0.7,9.3c0.1,1.6,0.2,3.1,0.3,4.7c0.1,1.8,0.3,3.7,0.3,5.5
	c0.2,0.3,0,0.7,0.1,1.1c0,0.8,0.1,1.7,0.1,2.5c0.2,0.3,0,0.7,0.1,1.1c0.1,2.1,0.2,4.1,0.4,6.1c0.5,4,1.6,7.9,3.3,11.5
	c1.5,3.1,3.2,6.1,3.9,9.6c0.5,2.4,0.7,4.9,1,7.4c0.3,2.1,0.1,4.3-0.6,6.3c-0.6,1.7-0.9,1.9-2.5,1.3c-1.1-0.4-1.4-0.1-1.5,1.1
	c0,1.1,0.3,2.2,1,3c-0.5,0.2-1,0.3-1.5,0.3c-1.3,0.1-2.7-0.2-3.7,1.1c-0.2,0.2-0.5,0.5-0.8,0.7c-2.4,2.1-5.2,3.8-6.7,6.9
	c-0.2,0.6-0.6,0.8-1.1,0.2c-1-1.2-2.1-1.2-3.2-0.1c-0.3,0.3-0.7,0.4-1,0.1c0,0,0,0,0,0c-1.3-0.8-2.6-1.7-3.9-2.6
	c-1.3-0.9-1.4-1.4-0.2-2.5c0.9-0.7,1.6-1.8,1.8-3c0-0.5,0-1,0-1.5c-0.6-3.1-2.4-5.6-3.6-8.4c0.5-0.1,1.1,0,1.6,0.3
	c0.9,0.5,1.3,1.4,1.8,2.2c0.6,1.1,1.3,2,2.3,2.7c0.9,0.5,1.3,1.5,1.1,2.5c-0.1,0.9-0.5,1.8-1,2.5c-0.7,0.8-1.2,1.7-1.7,2.6
	c-0.1,0.3-0.2,0.6,0,0.8c0.2,0.2,0.6,0.2,0.8-0.1c0,0,0,0,0,0c1-0.8,2.1-1.5,3-2.5c1.7-1.7,1.9-5,0.2-6.8c-1.5-1.5-3-3-4.4-4.6
	c-1.1-1.3-2.8-1.9-4.4-1.5c-2.1,0.3-4.1,1.3-5.6,2.9c-1,1.2-2.1,2.3-3.4,3.2c-1.9,1.3-2.1,1.2-2.4-1.1c-0.1-0.7-0.2-1.1-0.9-0.7
	c-0.3,0.1-0.5,0.3-0.7,0.4c-1,0.7-2,1.4-3,2.1c-0.5,0.4-1.2,0.2-1.6-0.3c-0.3-0.4,0.2-0.8,0.4-1.2c0.3-0.6,1.1-0.7,1.6-1.1
	c1.1-0.7,1.6-2.5,0.8-3.3c-0.8-0.9-1.9-1.3-3.1-1.1c-1.3,0.3-2.6,0.6-3.8,1.1c-1.9,0.6-2.4,0.4-3.7-1.3c-1.5-2.1-2.5-2.6-4.5-1.9
	c-1.6,0.6-3,1.6-4.2,2.8c-1.6,1.5-2.2,1.7-3.2-0.5c-0.4-0.7-0.6-1.6-0.5-2.4c0.1-2.2-0.3-4.3-1.4-6.2c-0.3-0.5,0.1-0.8,0.2-1.1
	c0.2-0.3,0.5,0,0.6,0.1c1.5,0.7,2.9,1.5,4.3,2.3c0.3,0.2,0.8,0.2,0.7,0.7c-0.1,0.4-0.5,0.3-0.8,0.4c-1.9,0.4-2.4,1-2.3,3.1
	c0,0.8,0.3,0.8,0.8,0.5c1.7-0.8,3.3-1.7,5-2.4c2-1,4.3-0.6,6,0.8c0.9,0.7,1.5,1.7,1.9,2.7c0.1,0.5,0.6,0.8,1,0.8
	c0.5,0,0.5-0.5,0.6-0.9c0.2-1,0.1-2-0.5-2.9c-0.8-1.5-2.1-2.1-3.5-2.6c-2.5-0.8-5-1.7-7.4-2.8c-1.3-0.6-2.7-0.9-4.1-0.9
	c-2.5-0.2-5,0.7-6.9,2.4c-1.1,1-2.3,2.1-1.5,4c0.2,0.5,0.2,1,0.2,1.5c-0.3,2.9-1.3,5.7-1.6,8.6c-0.1,1.2-0.7,1.3-1.8,0.8
	c-1.6-0.7-3-1.6-4.4-2.6c-2.2-1.7-4.9-2.7-7.7-2.6c-1.6-0.1-1.7-0.2-2.1-1.9c-0.5-1.9-1.9-3.5-3.7-4.2c-0.7-0.2-1.3-0.4-1.9-0.8
	c-4.4-3.6-8.9-7.2-13.3-10.8c-1.5-1.2-3.1-2.4-4.7-3.7c0,2,0,3.8,0,5.7c0,1.1,0.6,2.1,1.5,2.6c2.4,1.7,4.9,3.1,7.2,4.9
	c2.1,1.7,4.3,3.2,6.3,4.9c1.6,1.3,3.3,2.5,4.6,4.1c0.6,0.7,1.2,1.3,1.9,1.9c2.8,2,5.5,4,8.4,5.9c2,1.3,3.8,2.8,5.5,4.4
	c1.6,1.7,3.1,3.5,4.7,5.2c0.5,0.6,0.9,1.3,1,2.1c0.5,3.4,1.1,6.9,1.8,10.2c0.6,2.8,1.6,5.4,4.5,6.4c0.4,0.2,0.6,0.6,0.8,1
	c0.9,2.3,2.9,4,5.3,4.5c1.4,0.3,1.6,0.7,0.9,2c-1,1.9-1.8,3.9-2.6,5.9c-0.9,2.6-1.5,5.3-0.8,8.1c0.6,2,1.5,3.8,2.7,5.4
	c0.7,1,1.3,1.9,2.6,1.6c0.3-0.2,0.7,0,1-0.1c1.1-0.1,2.3-0.2,3.4-0.3c0.2,0,0.4,0,0.6,0c0.2,0,0.5-0.1,0.7-0.2
	c4-1.2,11.2-5.5,11.6-5.9c1.1-1.1,2.4-2.3,4-2.3c1.8,0,2.6-1.1,3.3-2.6c0.6-1.2,1.4-2.3,2.4-3.1c0.3-0.4,0.7-0.8,1.1-1.1
	c3-2.4,3.7-5,2.4-8.9c-0.3-0.9-0.4-1.8-0.1-2.7c0.4-1.4-0.1-2-1.4-1.9c-0.5,0.1-1,0.3-1.4,0.8c-2,2.4-4,4.8-5.9,7.3
	c-0.5,0.4-0.8,1-1.1,1.5c-0.1,0.4-0.6,0.8-0.1,1.1c0.4,0.3,0.9,0.3,1.3,0.1c0.3-0.1,0.6-0.4,0.7-0.7c0.5-1.1,1.1-0.9,1.7-0.2
	c0.2,0.2,0.5,0.8,0.8,0.3c0.4-0.9,1.4-1.6,1.1-2.9c-0.2-0.9,0.3-1.7,1.2-1.9c0,0,0,0,0,0c0.8,0.2,1.3,0.9,1.2,1.7
	c-0.1,1.4-0.6,2.7-1.4,3.8c-2.2,2.6-5,4.7-7.4,7c-0.7,0.7-10.7,7.6-16.3,7.7c-4-0.6-5.2-3.8-4.1-7.1c0.9-2.9,2-5.7,3.2-8.5
	c1-2.2,1.5-4.2,2.9-6.2c0.5-0.5,1-1.2,1.3-1.9c0.4-0.7,0.9-1.3,1.4-1.9c0.3-0.3,0.7-0.6,1.2-0.4c0.5,0.2,0.4,0.7,0.5,1.1
	c0.2,1.2-0.3,2.4-1.3,3.1c-0.7,0.5-1.5,0.9-1.6,1.9c-0.1,0.5-0.6,1-0.3,1.5c0.8,1.1,1.5,2.4,3.1,2.6c1.1,0.1,2.3,0.3,3.4-0.4
	c0.8-0.5,1.5-1.1,2.2-1.8c2.5-2.5,3.8-5.8,5.3-8.5c-0.2,0.5-0.3,1-0.2,1.5c0,1,0.3,1.2,1.2,0.6c0.5-0.4,0.8-0.8,1.1-1.4
	c1.5-2.5,2.9-5,4.3-7.5c0.7-1.3,1.2-2.6,1.6-4c0.3-0.9-0.1-1.8-0.9-2.2c-0.9-0.1-1.7,0.4-1.9,1.3c-0.1,0.2-0.1,0.3-0.1,0.5
	c-0.2,1.2-0.6,2.3-1.1,3.3c-0.5,1.1-1.1,2-1.6,2.9c0.6-1.7,1-3.5,1.4-5.3c0.3-1.6,1.3-3,2.6-3.8c1.7-1,3.6-1.3,5.5-0.8
	c1.9,0.5,4,0.4,5.8-0.2c0.5-0.1,1-0.2,1.5-0.1c0.3,0,0.4,0.1,0.4,0.5c0.1,1.4-0.3,2.9-1,4.1c-1.1,1.8-1.5,1.9-3.3,0.9l-0.2-0.2
	c-0.5-0.3-0.8-0.2-1.1,0.3c-0.3,0.5-0.5,1.3-0.8,1.9c-0.6,1.3-1.1,2.6-1.6,4c-0.3,0.7-0.4,1.4,0.1,2c0.6,0.6,1.2,0.3,1.9,0.1
	c0.1,0,0.1-0.1,0.2-0.1c1.9-1.1,4.3-0.8,5.9,0.8c0.9,0.8,1.5,0.8,2.3-0.2c1.2-1.3,2.4-2.6,3.4-4.1c0.4-0.8,1.4-1.2,2.2-0.8
	c2,0.7,4.3,0.5,6.1-0.8c0.4-0.4,1-0.4,1.5-0.1c0.7,0.4,1.1,0,1-0.8c-0.1-0.5-0.2-1-0.4-1.5c-0.2-0.5-0.1-0.9,0.5-1
	c1.2-0.4,2.4-0.6,3.6-0.6c0.9-0.1,1.7,0.7,1.8,1.6c0,0.1,0,0.3,0,0.4c-0.1,1.3-0.1,2.5,0,3.8c0.1,2-0.3,2.3-2.1,1.8h-0.1
	c-0.9-0.3-1.9,0.2-2.2,1.2c-0.1,0.3-0.1,0.5-0.1,0.8c0,0.7,0.1,1.5,0.3,2.2c0.4,1.2,0.2,2.6-0.6,3.6c-0.8,1.1-1.5,2.2-2.2,3.4
	c-0.8,1.4-1.8,2.7-2.9,3.8c-1.5,1.4-3.4,2.4-5.4,2.8c-1.7,0.3-3,1.7-3.5,3.4c-0.2,1.2-0.2,2.5,0.3,3.6c1.7,6.4,3.2,12.8,4.6,19.3
	c2,9.2,4,18.3,6,27.5c0.7,2.7,1.1,5.6,1.1,8.4c-0.1,4.1-1.8,7.9-4.6,10.7c-0.6,0.6-1.4,0.8-2.1,0.6c-1.4-0.4-2.8-0.9-4.1-1.6
	c-2.9-1.6-5.7-3.6-8.3-5.8c-1.4-1.1-2.9-1.9-4.6-2.3c-1-0.2-2-0.5-2.9-0.9c-4-1.7-7.3-4.4-10.5-7.4c-1.5-1.3-2.4-3.3-2.1-5.4
	c0-1-0.2-2.1-0.7-3c-0.5-1-1.1-1.9-1.8-2.8c-0.9-1.6-0.5-2.8,1.1-3.4c1.3-0.5,2.7-0.8,4-1.2c2.1-0.5,4.2,0.7,5,2.8
	c0.7,1.9,1.7,3.6,2.9,5.2c1.4,1.9,3.6,2,5.3,1.7c0.3-0.1,0.6-0.3,0.8-0.6c1.9-2.2,1.8-6.7-0.2-8.7c-1.6-1.7-3.5-3.1-5.5-4.3
	c-1.2-0.6-2.4-1.4-3.9-1.2c-1.4-0.3-2.8-0.5-4.2-0.7c-0.7-0.1-1.5,0.1-2.2-0.1c-1.1,0-2.2,0-3.3-0.2c-2.6-0.4-5.1,0.8-6.5,3.1
	c-1.4,2.5-2.5,5.1-3.8,7.7c-0.9,1.9-1.1,4-0.6,6c0.4,1.5,1,3,1.6,4.5c-0.1,0.5,0.2,0.8,0.4,1.2c1.5,2.9,3.2,5.6,5,8.3
	c1.5,2.5,3.3,4.7,5.4,6.5c3.2,2.7,6.3,5.6,9,8.8c1.9,1.8,2.5,4.7,1.6,7.2c-1.1,3.2-3,6.1-5.5,8.3c-1,0.9-2.3,1.4-3.6,1.3
	c-2.2,0-4.4-0.2-6.6-0.5c-2.9-0.2-5.6-1.4-7.9-3.3c-1.6-1.3-3.6-2.1-5.7-2.3c-1.8-0.2-3.6-0.3-5.3-0.5c-4.1-0.6-8.2,0.3-11.7,2.4
	c-1.9,1.2-4,2.2-6.1,2.9c-0.9,0.3-1.8,0.6-2.7,1c-1.4,0.6-1.7,1.3-1.1,2.7c0.4,0.8,0.3,1.7-0.1,2.4c-0.2,0.5-0.5,0.9-0.7,1.4
	c-0.5,0.8-0.8,1.6-0.9,2.5c-0.1,0.4-0.2,0.8,0.2,1c0.3,0.2,0.7,0.2,1,0c0.5-0.2,0.9-0.5,1.2-0.9c0.6-0.7,1.2-1.3,1.9-1.8
	c2.5-2.2,5.1-4.2,7.9-5.9c1.5-0.9,3.4-0.9,4.9,0.1c0.9,0.7,1.9,1.3,3,1.7c2.1,0.5,2.9,2,3.2,4.1c0.3,2.5,0.8,3.1,3,1.5
	c0.5-0.4,1.2-0.5,1.8-0.2c0.9,0.4,1.8,0.7,2.7,0.9c2.5,0.4,4.8,1.5,6.8,3.1c0.4,0.3,0.8,0.5,1.2,0.7c1.8,1,4,1.3,5.9,0.6
	c1.6-0.5,1.6-0.5,1.5,1.3c0.1,2.3-1.7,4.3-3.9,4.4c-0.4,0-0.8,0-1.1-0.1c-0.2,0-0.5-0.1-0.8-0.2c-2.3-0.6-4.6-1.1-6.9-0.7
	c-1.8,0.3-3.6,0.2-5.4-0.2l-3.8-0.8c-0.4-0.1-0.9-0.1-1.3-0.1c-1.7,0-2.4,1.1-2,2.8c0.1,0.4,0.3,0.9,0.5,1.2
	c1.9,2.7,4.3,4.5,7.6,4.4c2.1,0,3,0.7,3.7,2.8c0.2,0.5,0.3,0.9,0.4,1.4c0.6,2.8,1.1,5.6,1.4,8.4c0.3,2,0.3,4,0.1,6
	c-1.2,7.3-5.4,13.7-11.5,17.5c-2.7,1.6-5.4,3.4-7.9,5.3c-0.4,0.3-1,0.6-0.6,1.3h7.1c1.4-0.5,2.6-1.3,3.7-2.3c3.1-2.2,5.8-5,8.1-8.1
	c1.9-2.9,3.1-6.2,4.3-9.5c1-2.6,1.2-5.4,0.8-8.1c-0.3-2.6-0.8-5.1-1.1-7.7c-0.4-2.9,1-5.7,3.5-7.1c1.7-0.8,3.4-1.7,5.1-2.5
	c2.4-1.3,3.6-3.5,3.8-6.3c0.1-1.9,0-3.7-0.3-5.6c-0.3-2,0.3-4.1,1.7-5.5c1-0.9,2-1.8,3.2-2.5c1.2-0.7,2.2-1.7,3-2.9
	c1.1-2,2.4-3.8,3.5-5.7c0.7-1.2,1.2-2.7,1.2-4.1c0-1.6-0.4-3.2-1-4.7c-0.5-1-0.6-2.2-0.5-3.3c0.1-0.8,0.5-1.2,1.3-1.1
	c0.9,0,1.7,0.2,2.5,0.5c2.3,1,4.6,1.7,7,2.3c1.8,0.5,3.8,0.2,5.5-0.7c1.1-0.6,2.2-0.9,3.4-1.1c4.6-0.6,7.8-3.5,9.6-7.8
	c1.7-4.1,2.2-8.6,1.2-12.9c-0.6-2.5-1.3-5-1.8-7.5c-1.8-7.8-3.5-15.7-5.3-23.5c-1.3-6-2.6-12-3.8-18c-0.5-2.5-0.2-3,2-4.1
	c0.2-0.1,0.3-0.1,0.5-0.2c2-1,3.8-2.4,5.3-4.1c3-4,5.7-8.1,8.3-12.4c1.2-1.8,2-4,2.2-6.2v-2.9C126.7,199.8,127,199.4,126.8,199.1z
	 M57.9,190.2c0.9,0.3,1.8,0.6,2.7,0.9c0.2,0.1,0.2,0.3,0.2,0.5c0,0.2-0.3,0.3-0.5,0.2c-0.8-0.3-1.7-0.6-2.5-0.8
	c-0.2,0-0.4-0.2-0.3-0.5c0,0,0-0.1,0-0.1C57.5,190.4,57.6,190.2,57.9,190.2C57.8,190.2,57.9,190.2,57.9,190.2z M50.8,179.1
	c0.2-0.4,0.7-0.6,1.1-0.5c0.5,0,0.2,0.6,0.3,0.8c0,0.6-1.4,3-1.9,3.2c-0.3,0.1-0.4-0.1-0.4-0.4C50.1,181.2,50.4,180.1,50.8,179.1
	L50.8,179.1z M61.9,208.8c-0.1,0-0.2,0-0.4,0c-1-0.1-2-0.5-2.8-1c-0.5-0.2-0.8-0.5-1.3-0.8c-1.5-0.7-2.7-2.1-3-3.8
	c-0.4-2-1.8-3.4-3.2-4.7c-0.6-0.5-0.9-1.3-0.8-2c0-0.6,0.1-1.3,0.7-1.6c0.6-0.2,1.2,0,1.6,0.4c1.8,1.7,3.3,3.6,4.4,5.8
	c0.8,1.5,1.6,2.9,2.4,4.3c0.4,0.9,1.3,1.6,2.3,1.6c0.7,0,1.6,0.2,1.6,1S62.5,208.6,61.9,208.8L61.9,208.8z M79.1,185.2
	c-0.5,0.6-1.3,0.6-1.9,0.1c-1.4-0.8-2.8-1.6-4.1-2.4c-0.5-0.3-0.8-0.9-0.6-1.5c0.2-0.6,0.6-0.7,1.5-0.6c1.7,0.3,3.6,0.7,4.8,2.6
	C79,183.9,79.6,184.5,79.1,185.2L79.1,185.2z M107.6,191.9c-0.3-0.1-0.5-0.4-0.6-0.7c0-1.4,0.6-2.8,1.6-3.8c0.5-0.4,0.7-0.2,0.8,0.4
	c0,1.7,1,3.3,2.5,4C110.7,192.8,108.9,192.9,107.6,191.9L107.6,191.9z M114.4,197.5c-0.5,0.7-1.1,1.5-1.6,2.2
	c-0.9-0.8-0.5-1.3,0-1.9c0.3-0.3,0.5-0.6,0.8-0.9c0.2-0.2,0.3-0.5,0.6-0.2C114.6,197,114.6,197.2,114.4,197.5L114.4,197.5z"/>
<path class="st0" d="M47.8,330.1c-0.6,0-1.2-0.3-1.6-0.8c-1.2-1.7-2.4-3.4-3.5-5.1c-0.4-0.5-0.4-1.1-0.2-1.7c0.2-0.6,0.8-1,1.4-0.9
	c0.3,0,0.6,0.1,0.9,0.2c2.6,1,4.4,3.4,4.8,6.3c0.2,0.9-0.3,1.8-1.1,2C48.2,330.1,48,330.1,47.8,330.1z"/>
<path class="st0" d="M108.3,201.8c-0.3,2.3-1.4,4.1-2.6,5.9c-0.5,0.8-1.1,1.7-1.6,2.6c-0.5,0.9-1.4,1.5-2.4,1.7
	c-0.7,0.2-0.7-0.1-0.8-0.7c-0.2-0.9,0.1-1.8,0.7-2.4c2.1-2.2,4.1-4.5,6.2-6.7C107.9,201.9,107.9,201.7,108.3,201.8z"/>
<path class="st0" d="M115.4,166c-0.7,0-1.4,0.4-1.4,2.8s0.7,2.8,1.4,2.8s1.3-0.8,1.3-2.8S116,166,115.4,166z"/>
</svg>
