<svg id="Capa_1" data-name="Capa 1" xmlns="http://www.w3.org/2000/svg" viewBox="0 0 1000 585">
  <defs>
    <style>.cls-1,.cls-2,.cls-3{isolation:isolate;font-family:BookAntiqua, Book Antiqua;}.cls-1{font-size:105.08px;letter-spacing:0.01em;}.cls-1,.cls-2,.cls-3,.cls-4{fill:#3F5486;}.cls-2{font-size:109.41px;letter-spacing:0.01em;}.cls-3{font-size:111.58px;letter-spacing:0.02em;}</style>
  </defs>
  <text class="cls-1" transform="translate(258.28 284.65) scale(1.09 1)">Fundación</text>
  <text class="cls-2" transform="translate(258.28 394.33) scale(1.05 1)">Jacinto</text>
  <text class="cls-3" transform="translate(641.54 394.33) scale(1.03 1)">Convit</text>
  <path class="cls-4" d="M122.32,430.23c1.85.19,3.39-.89,5.08-1.37,2-.56,2.54-.21,2.92,1.77a8.68,8.68,0,0,1-1.35,7.5,8.08,8.08,0,0,1-1.87,1.62c-1.46,1-3,1-3.6.09a3.45,3.45,0,0,1,1.52-3.91,3.47,3.47,0,0,0,1.56-1.88c.13-.28.27-.68-.15-.86a.57.57,0,0,0-.7.31c-2,3.44-4.68,2.81-7.77,1.75A44.24,44.24,0,0,1,109.6,431c-1-.58-1.06-1.86-1.35-2.9-.13-.46.23-.5.5-.66a3.71,3.71,0,0,1,4.33.11c2.09,1.38,4.2,2.66,6.82,2.64A4.52,4.52,0,0,0,122.32,430.23Z" transform="translate(0 -189)"/>
  <path class="cls-4" d="M136.29,433.41c1.66,0,2.28.61,1.93,2.24-.39,1.87-.8,3.73-1.05,5.64a1.76,1.76,0,0,1-1.93,1.54,1.85,1.85,0,0,1-1-.36c-.95-.76-1.61-.39-2.39,0a6.88,6.88,0,0,1-3.13.94c-.77,0-.93-.28-.89-1a6.22,6.22,0,0,1,1.68-3.26c1.43-2,2.62-4.09,4.85-5.34A4,4,0,0,1,136.29,433.41Z" transform="translate(0 -189)"/><path class="cls-4" d="M207.22,486.22a14.2,14.2,0,0,0-.42-2c-2.14-7-6-12.36-13.53-14.69-2.44-.76-4.78-1.88-7.37-2.89,1.7-1.27,3.31-2.31,4.85-3.49,4.48-3.36,8.08-7.49,9-13,1.92-10.71.58-21-5-30.59a63,63,0,0,1-9.06-33.59c.14-6.25-.67-12.45-1.13-18.65-.63-7.87-1.34-15.74-1.92-23.6a79.82,79.82,0,0,0-2.94-17.74c-3.52-11.2-7.88-22.1-12.1-33.05-3.1-8-6.29-16-11.6-22.86a297.8,297.8,0,0,1-28.09-42.91,54.71,54.71,0,0,0-19.53-21.16c-7.18-4.47-14-9.26-20.8-14.21a11.16,11.16,0,0,0-8.18-2.7,49.79,49.79,0,0,1-5.73,0c1.17.92,1.67,1.8,2.6,2.26,4.56,2.55,9,5.32,13.28,8.19,7.51,5,15,9.94,22.41,15a23.75,23.75,0,0,1,6,5.88A104.86,104.86,0,0,1,124,230.85c2.69,5,5.61,10,8.72,14.89,3.39,5.33,7.08,10.49,10.76,15.62,2.69,3.62,4.74,7.64,7.76,11a36.58,36.58,0,0,1,6.58,10.83c2.3,6,4.48,12.16,6.73,18.19,3.23,8.45,7.43,16.57,9.27,25.49A104.6,104.6,0,0,1,176,343.7c.08,1.71.12,3.41.34,5.1.62,4.74.79,9.57,1.21,14.31.2,2.42.37,4.83.45,7.2.18,2.84.6,5.62.6,8.5.37.5,0,1.12.24,1.62,0,1.27.09,2.55.13,3.82.3.54,0,1.12.21,1.67.17,3.16.33,6.28.75,9.41A55.08,55.08,0,0,0,185.53,413c2.48,4.8,5.38,9.46,6.62,14.79.8,3.69,1.17,7.53,1.63,11.32a21,21,0,0,1-1,9.74c-1,2.67-1.56,2.87-4.23,2-1.81-.58-2.44-.16-2.52,1.62a6.79,6.79,0,0,0,1.64,4.63,6.93,6.93,0,0,1-2.51.41c-2.22.12-4.54-.25-6.34,1.63-.38.37-.92.7-1.35,1.08-4,3.29-8.8,5.86-11.31,10.69-.42.88-1,1.21-1.94.26-1.75-1.8-3.51-1.8-5.49-.09a1.3,1.3,0,0,1-1.76.17h0c-2.18-1.27-4.4-2.54-6.58-4s-2.34-2.2-.34-3.82a7.54,7.54,0,0,0,3.11-4.63,10.86,10.86,0,0,0,0-2.28c-1-4.75-4-8.66-6.12-12.95a3.82,3.82,0,0,1,2.69.43c1.51.73,2.13,2.15,3,3.4a13.1,13.1,0,0,0,3.89,4.13,3.29,3.29,0,0,1,1.85,3.82,8.27,8.27,0,0,1-1.67,3.91,18.88,18.88,0,0,0-2.81,4c-.17.41-.42.91-.09,1.2a1,1,0,0,0,1.33-.11l0,0a55.28,55.28,0,0,0,5-3.82c2.81-2.62,3.19-7.74.25-10.45-2.51-2.33-5-4.66-7.45-7a7.61,7.61,0,0,0-7.47-2.25,17.69,17.69,0,0,0-9.55,4.45,30.2,30.2,0,0,1-5.74,4.88c-3.15,1.95-3.65,1.82-4-1.76-.12-1.08-.38-1.62-1.59-1-.43.19-.85.4-1.26.62-1.63,1.13-3.39,2.17-5.07,3.25a2,2,0,0,1-2.7-.42c-.49-.58.3-1.27.68-1.79.58-1,1.8-1.12,2.69-1.71,1.9-1.12,2.69-3.82,1.34-5a5.87,5.87,0,0,0-5.19-1.65,51.11,51.11,0,0,0-6.46,1.69c-3.23,1-4,.63-6.2-2-2.56-3.22-4.18-4.08-7.63-3a21.45,21.45,0,0,0-7.08,4.37c-2.69,2.28-3.68,2.55-5.38-.79a7.61,7.61,0,0,1-.93-3.67,16.41,16.41,0,0,0-2.34-9.57c-.55-.79.12-1.16.38-1.67s.83,0,1.09.13c2.48,1.12,4.9,2.37,7.33,3.58.5.25,1.43.25,1.27,1-.14.58-.93.5-1.35.58-3.27.54-4,1.54-3.9,4.75,0,1.21.46,1.16,1.35.79,2.85-1.27,5.65-2.55,8.54-3.71a10.07,10.07,0,0,1,10.22,1.28,9.93,9.93,0,0,1,3.27,4.2,1.83,1.83,0,0,0,1.73,1.17c.83.08.79-.79,1-1.37a5.33,5.33,0,0,0-.79-4.41c-1.34-2.3-3.56-3.25-6-4a105,105,0,0,1-12.49-4.38,18.52,18.52,0,0,0-7-1.33A17.16,17.16,0,0,0,72,428.19c-1.93,1.49-4,3.2-2.52,6.16a4,4,0,0,1,.26,2.29c-.6,4.49-2.18,8.78-2.78,13.28-.24,1.79-1.17,2-3,1.28a33.37,33.37,0,0,1-7.41-4.08,22.26,22.26,0,0,0-13-4.08c-2.69-.13-2.85-.29-3.64-3a9.85,9.85,0,0,0-6.21-6.46,11.34,11.34,0,0,1-3.15-1.2Q19.26,424.11,8,415.77c-2.55-1.88-5.19-3.66-8-5.62v8.74a4.37,4.37,0,0,0,2.56,3.95c4,2.55,8.3,4.79,12.2,7.55,3.56,2.54,7.29,4.86,10.76,7.53,2.69,2.07,5.61,3.82,7.87,6.37a17.21,17.21,0,0,0,3.31,2.88c4.74,3.12,9.42,6.16,14.25,9.15a61.2,61.2,0,0,1,9.27,6.83c2.69,2.55,5.23,5.42,8,8a5.37,5.37,0,0,1,1.62,3.2c.93,5.29,1.81,10.58,3.11,15.78,1.09,4.37,2.8,8.24,7.71,9.83.75.25,1,.91,1.35,1.54a12.1,12.1,0,0,0,8.92,6.87c2.34.4,2.69,1,1.54,3.12a87.33,87.33,0,0,0-4.4,9.15c-1.54,4-2.51,8.17-1.34,12.45a24.33,24.33,0,0,0,4.57,8.32c1.13,1.54,2.18,2.88,4.4,2.46.5-.33,1.13,0,1.72-.2,1.93-.17,3.85-.38,5.79-.42a7.45,7.45,0,0,0,.95-.08,6.78,6.78,0,0,0,1.18-.29c6.72-1.84,19-8.41,19.75-9.08,1.92-1.75,4-3.46,6.72-3.5,3,0,4.36-1.75,5.53-4a15.48,15.48,0,0,1,4-4.83,7.81,7.81,0,0,1,1.9-1.67c5.15-3.75,6.36-7.75,4.14-13.78a6.08,6.08,0,0,1-.22-4.2c.68-2.13-.16-3.09-2.46-2.87a3.56,3.56,0,0,0-2.35,1.2c-3.47,3.62-6.84,7.37-10.11,11.16a7.28,7.28,0,0,0-1.8,2.37c-.16.59-1,1.28-.24,1.75a2.19,2.19,0,0,0,2.26.13,2.52,2.52,0,0,0,1.25-1.09c.85-1.61,1.8-1.41,2.93-.29.34.33.93,1.17,1.35.42.71-1.41,2.39-2.46,1.8-4.54a2.44,2.44,0,0,1,2-2.9h.07a2.37,2.37,0,0,1,2,2.62,11,11,0,0,1-2.43,5.91c-3.78,4-8.43,7.28-12.62,10.82-1.21,1.05-18.19,11.7-27.74,11.91-6.83-.87-8.85-5.83-6.91-11a127.75,127.75,0,0,1,5.38-13.07c1.67-3.42,2.55-6.54,4.85-9.61a10.26,10.26,0,0,0,2.21-2.88A17,17,0,0,1,109,499c.55-.46,1.19-.95,2-.59s.71,1,.79,1.71a4.74,4.74,0,0,1-2.18,4.74c-1.13.79-2.47,1.42-2.69,2.92-.17.75-1.09,1.54-.55,2.24,1.35,1.76,2.6,3.75,5.24,4,1.93.09,3.9.49,5.74-.59a29.1,29.1,0,0,0,3.78-2.7c4.27-3.82,6.49-8.92,8.92-13.15a4.16,4.16,0,0,0-.38,2.33c.08,1.54.6,1.78,2,.92a6.62,6.62,0,0,0,1.86-2.12c2.51-3.82,4.86-7.71,7.25-11.57a25.51,25.51,0,0,0,2.69-6.13,2.63,2.63,0,0,0-1.55-3.37,3.16,3.16,0,0,0-3.31,2,3.4,3.4,0,0,0-.21.79,17.21,17.21,0,0,1-1.88,5.16c-.89,1.62-1.93,3.12-2.7,4.5a73.35,73.35,0,0,0,2.39-8.17,8.73,8.73,0,0,1,4.44-5.83,13.3,13.3,0,0,1,9.27-1.27,19,19,0,0,0,9.93-.3,6.83,6.83,0,0,1,2.47-.16c.54,0,.71.16.75.75a10.16,10.16,0,0,1-1.76,6.28c-1.88,2.76-2.47,3-5.57,1.46l-.42-.25a1.16,1.16,0,0,0-1.8.54c-.46.79-.89,2-1.34,3-1,2-1.85,4.07-2.69,6.11-.44,1.09-.72,2.17.24,3s2.1.53,3.15.13a2.06,2.06,0,0,1,.33-.17,8.93,8.93,0,0,1,10,1.2c1.56,1.27,2.56,1.17,3.9-.29a60.27,60.27,0,0,0,5.79-6.29,3.07,3.07,0,0,1,3.81-1.21,12.4,12.4,0,0,0,10.36-1.16,2.26,2.26,0,0,1,2.47-.2c1.13.57,1.79,0,1.63-1.28a7.48,7.48,0,0,0-.75-2.33c-.38-.84-.12-1.37.79-1.58a18.7,18.7,0,0,1,6.08-.88,2.8,2.8,0,0,1,3,2.51,2.58,2.58,0,0,1,0,.62,37.69,37.69,0,0,0,0,5.82c.13,3.08-.5,3.5-3.61,2.83h-.16a3,3,0,0,0-3.74,1.79,2.73,2.73,0,0,0-.12,1.2,9.09,9.09,0,0,0,.59,3.38,5.46,5.46,0,0,1-1.05,5.49c-1.35,1.67-2.56,3.42-3.81,5.17a32.42,32.42,0,0,1-4.95,5.91,20.13,20.13,0,0,1-9.26,4.37,7.45,7.45,0,0,0-5.88,5.25,9.73,9.73,0,0,0,.44,5.57c2.93,9.83,5.44,19.69,7.83,29.64,3.39,14.11,6.72,28.18,10.18,42.3a45.23,45.23,0,0,1,1.91,12.9,22.69,22.69,0,0,1-7.79,16.4,3.79,3.79,0,0,1-3.56.87,33.37,33.37,0,0,1-6.92-2.41,84.8,84.8,0,0,1-14-8.92,19.77,19.77,0,0,0-7.85-3.53,27.65,27.65,0,0,1-5-1.43c-6.72-2.55-12.4-6.82-17.85-11.35a9.24,9.24,0,0,1-3.65-8.34,9,9,0,0,0-1.13-4.65,36.46,36.46,0,0,0-3-4.33c-1.59-2.43-.88-4.3,1.88-5.2,2.22-.72,4.54-1.21,6.73-1.8a7.54,7.54,0,0,1,8.46,4.29,30.38,30.38,0,0,0,4.86,7.94c2.39,3,6,3,9,2.63a2.47,2.47,0,0,0,1.35-.87c3.19-3.34,3.09-10.37-.34-13.44a41,41,0,0,0-9.42-6.59c-2-1-4.14-2.16-6.61-1.88q-3.51-.69-7.08-1c-1.27-.21-2.56.13-3.82-.16a36.75,36.75,0,0,1-5.65-.26,11.13,11.13,0,0,0-11,4.76c-2.3,3.91-4.3,7.9-6.48,11.85a12.33,12.33,0,0,0-1,9.29,50.84,50.84,0,0,0,2.77,6.87c-.17.7.34,1.27.66,1.78a151.21,151.21,0,0,0,8.56,12.82A43.88,43.88,0,0,0,120,629.36,121,121,0,0,1,135.28,643,9.84,9.84,0,0,1,138,654a30.64,30.64,0,0,1-9.42,12.75,9.07,9.07,0,0,1-6,2,104.46,104.46,0,0,1-11.18-.79A24.88,24.88,0,0,1,98,662.87a18.87,18.87,0,0,0-9.67-3.57c-3-.29-6-.42-9-.71a32.9,32.9,0,0,0-19.91,3.71A59,59,0,0,1,49,666.83c-1.56.46-3.1.92-4.61,1.49-2.3.92-2.81,2-1.8,4.21a3.66,3.66,0,0,1-.13,3.71c-.37.71-.79,1.41-1.26,2.13a10.83,10.83,0,0,0-1.59,3.87c-.16.57-.25,1.16.38,1.58a1.76,1.76,0,0,0,1.76.08,7.39,7.39,0,0,0,2.1-1.37,27.35,27.35,0,0,1,3.27-2.79,89.55,89.55,0,0,1,13.45-9.12,8.8,8.8,0,0,1,8.35.12A20.1,20.1,0,0,0,74,673.29c3.48.84,4.91,3.05,5.38,6.38.46,3.82,1.34,4.75,5.07,2.38a3,3,0,0,1,3.14-.29,25.2,25.2,0,0,0,4.61,1.45A27.77,27.77,0,0,1,103.77,688a12.77,12.77,0,0,0,2.1,1,13.66,13.66,0,0,0,10.1,1c2.7-.7,2.7-.7,2.55,2a6.71,6.71,0,0,1-6.65,6.8,7.56,7.56,0,0,1-1.9-.18c-.41-.08-.83-.21-1.34-.3-3.89-.86-7.83-1.65-11.77-1a26.23,26.23,0,0,1-9.14-.29l-6.42-1.28a9.89,9.89,0,0,0-2.18-.21c-2.84,0-4,1.63-3.39,4.29a5.07,5.07,0,0,0,.89,1.91c3.22,4.21,7.24,6.87,12.9,6.71,3.49-.08,5.08,1.08,6.33,4.24a18.33,18.33,0,0,1,.71,2.17,114,114,0,0,1,2.44,13,29.83,29.83,0,0,1,.16,9.24A38.79,38.79,0,0,1,79.7,763.8,148,148,0,0,0,66.25,772c-.67.5-1.68.88-1,2H77.35a20.19,20.19,0,0,0,6.33-3.58,57.12,57.12,0,0,0,13.75-12.53c3.26-4.46,5.24-9.53,7.34-14.57a22.3,22.3,0,0,0,1.34-12.45c-.58-4-1.34-7.91-1.92-11.9a10.56,10.56,0,0,1,5.86-10.91c2.86-1.27,5.79-2.55,8.68-3.91,4.15-2,6.12-5.37,6.46-9.74a39.82,39.82,0,0,0-.55-8.58,9.11,9.11,0,0,1,2.85-8.45,31.94,31.94,0,0,1,5.38-3.82,15.56,15.56,0,0,0,5.08-4.45c1.92-3,4-5.87,6-8.83a12.28,12.28,0,0,0,2.06-6.37,16.78,16.78,0,0,0-1.72-7.24,8.84,8.84,0,0,1-.88-5.1,1.86,1.86,0,0,1,2.18-1.74,16.23,16.23,0,0,1,4.27.7A75.52,75.52,0,0,0,161.77,644a13.67,13.67,0,0,0,9.27-1,16.78,16.78,0,0,1,5.79-1.62,19.53,19.53,0,0,0,16.29-12,29.77,29.77,0,0,0,2-19.89c-1-3.82-2.14-7.65-3.06-11.47q-4.53-18.11-9-36.22-3.39-13.86-6.5-27.76c-.83-3.82-.42-4.59,3.35-6.24a6,6,0,0,0,.8-.3,27.6,27.6,0,0,0,9.05-6.37,201.71,201.71,0,0,0,14-19.11,19.78,19.78,0,0,0,3.72-9.58v-4.53C207.1,487.38,207.52,486.75,207.22,486.22ZM90.31,472.11c1.6.49,3.1.95,4.65,1.45.37.13.41.42.33.79s-.49.46-.87.37c-1.42-.41-2.85-.87-4.27-1.28a.62.62,0,0,1-.55-.71.88.88,0,0,1,.05-.15.49.49,0,0,1,.5-.49A.44.44,0,0,1,90.31,472.11Zm-11.1-17.06a1.85,1.85,0,0,1,1.88-.74c.79,0,.3.87.51,1.27,0,.87-2.43,4.65-3.15,4.87-.49.16-.75-.09-.63-.59A20.92,20.92,0,0,1,79.21,455Zm17,45.66c-.17.08-.33,0-.75,0a13.42,13.42,0,0,1-4.81-1.49c-.77-.38-1.43-.84-2.18-1.27a8.09,8.09,0,0,1-5-5.91c-.63-3-3-5.24-5.38-7.28a4.06,4.06,0,0,1-1.42-3.16,2.32,2.32,0,0,1,1.26-2.45,2.62,2.62,0,0,1,2.69.67,36,36,0,0,1,7.5,8.85c1.35,2.25,2.69,4.49,4,6.7A4.4,4.4,0,0,0,96,497.82c1.21,0,2.69.37,2.69,1.54s-1.54,1-2.46,1.34Zm30-36.38a2.39,2.39,0,0,1-3.19.2c-2.34-1.27-4.69-2.45-7-3.7a1.87,1.87,0,0,1-1-2.33c.26-.87,1.09-1.12,2.47-1,2.81.51,6,1.14,8.07,4,.51.78,1.47,1.69.63,2.74Zm48.4,10.44a1.71,1.71,0,0,1-1.05-1.13,8.05,8.05,0,0,1,2.69-5.86c.88-.55,1.26-.33,1.34.66a6.5,6.5,0,0,0,4.32,6.11,6.75,6.75,0,0,1-7.38.21ZM186,483.34c-.91,1.12-1.8,2.27-2.68,3.39-1.47-1.19-.93-2.07.08-2.9.49-.42.92-.95,1.42-1.37.3-.26.46-.83,1.05-.33s.51.68,0,1.19Z" transform="translate(0 -189)"/>
  <path class="cls-4" d="M73.14,687.62a3.36,3.36,0,0,1-2.69-1.27c-2.11-2.55-4-5.17-5.86-7.84a2.33,2.33,0,0,1-.3-2.55,2.56,2.56,0,0,1,2.43-1.45,7.32,7.32,0,0,1,1.47.27,12.19,12.19,0,0,1,8.07,9.67,2.53,2.53,0,0,1-1.89,3.13A2.69,2.69,0,0,1,73.14,687.62Z" transform="translate(0 -189)"/>
  <path class="cls-4" d="M175.67,489.93c-.49,3.5-2.36,6.36-4.35,9.14-.93,1.27-1.91,2.55-2.77,3.95a5.68,5.68,0,0,1-4,2.62c-1.2.24-1.25-.22-1.43-1.07a3.7,3.7,0,0,1,1.19-3.72c3.52-3.4,6.95-6.9,10.43-10.35C175,490.18,175.1,489.75,175.67,489.93Z" transform="translate(0 -189)"/>
  <path class="cls-4" d="M187.67,434.83c-1.1,0-2.34.67-2.34,4.36s1.24,4.35,2.34,4.35,2.15-1.16,2.15-4.35S188.76,434.83,187.67,434.83Z" transform="translate(0 -189)"/>
</svg>
